<svg xmlns="http://www.w3.org/2000/svg" enable-background="new 0 0 600 500" viewBox="0 0 600 500"><path fill="#d2e4ff" d="M522.3 434.9c18.4 0 33.7-15.6 33.7-34.9v-.4c-.1-18.2-6.5-35.7-13.3-52.5-6.8-16.8-14.4-33.5-16.9-51.5-4.9-34 8.2-67.6 17.2-100.7 9-33.1 13.2-71.7-6.4-99.2-14.5-20.4-39.7-30.1-63.9-30.9-24.3-.8-48.1 6.1-71.4 13.4-23.2 7.3-46.7 15.2-70.9 16.4-38.5 1.9-75.8-13.1-113.8-19.9-38-6.7-82.3-2.7-107.1 28.3-16.2 20.3-20.7 48.2-21 74.7-.3 26.5 27.4 68.5 24 94.7-4.4 33.1-43.6 48.2-51.1 80.6-3.9 16.7-5.5 34.9-3 51.9 2.5 17.3 16.7 30 33.3 30h430.6z" opacity=".3" class="colord2e4ff svgShape"/><path fill="#c6e2fa" d="M388.9 106.1h-38.8c-.2 0-.4-.2-.4-.4s.2-.4.4-.4h38.8c.2 0 .4.2.4.4s-.2.4-.4.4zM388.9 125.3h-38.8c-.2 0-.4-.2-.4-.4s.2-.4.4-.4h38.8c.2 0 .4.2.4.4s-.2.4-.4.4zM381.9 115.7H327c-.2 0-.4-.2-.4-.4s.2-.4.4-.4h54.9c.2 0 .4.2.4.4s-.2.4-.4.4z" class="colorc6e2fa svgShape"/><path fill="#c6e2fa" d="M358.1 106.1c-.2 0-.4-.2-.4-.4v-8.2c0-.2.2-.4.4-.4s.4.2.4.4v8.2c0 .2-.2.4-.4.4zM371.7 115.7c-.2 0-.4-.2-.4-.4v-9.6c0-.2.2-.4.4-.4s.4.2.4.4v9.6c0 .2-.2.4-.4.4zM361.3 125c-.2 0-.4-.2-.4-.4v-9.3c0-.2.2-.4.4-.4s.4.2.4.4v9.3c0 .2-.1.4-.4.4z" class="colorc6e2fa svgShape"/><path d="M135.7 290.4h-2.1v-1h1.9c2 0 4-.1 6-.2v1c-1.8.1-3.8.2-5.8.2zm-10.1-.5c-2.7-.3-5.4-.6-8-1.1l.2-1c2.6.5 5.2.8 7.9 1.1l-.1 1zm24.1-.3-.1-1c2.6-.3 5.2-.6 7.9-1.1l.2 1c-2.8.4-5.5.8-8 1.1zm15.8-2.5-.2-1c2.5-.5 5.1-1.1 7.8-1.7l.2 1c-2.6.6-5.3 1.1-7.8 1.7zm-55.7-.1c-2.6-.7-5.2-1.5-7.7-2.5l.4-.9c2.4.9 5 1.7 7.6 2.4l-.3 1zm71.3-3.7-.3-1c2.4-.7 4.9-1.4 7.7-2.2l.3 1c-2.8.9-5.3 1.6-7.7 2.2zm-86.3-2c-2.4-1.2-4.8-2.6-7-4l.5-.8c2.2 1.4 4.5 2.7 6.9 4l-.4.8zm101.7-2.4-.3-1c2.6-.8 5.1-1.6 7.6-2.4l.3 1c-2.5.8-5.1 1.6-7.6 2.4zm-115.2-6.4c-2.1-1.8-4-3.7-5.7-5.7l.8-.7c1.7 2 3.6 3.8 5.6 5.6l-.7.8zm-10.5-12.2c-1.4-2.3-2.7-4.7-3.8-7.1l.9-.4c1.1 2.4 2.3 4.8 3.7 7l-.8.5zm-6.5-14.7c-.7-2.6-1.2-5.2-1.6-7.9l1-.1c.3 2.6.9 5.3 1.5 7.8l-.9.2zm-1-16h-1c0-1.1 0-3.7.5-8l1 .1c-.6 4.2-.5 7-.5 7.9zm1.7-15.7-1-.2c.6-2.6 1.3-5.2 2.2-7.8l.9.3c-.8 2.5-1.5 5.1-2.1 7.7zm5.1-15.1-.9-.4c1.1-2.4 2.3-4.9 3.6-7.2l.9.5c-1.3 2.3-2.6 4.7-3.6 7.1zm7.8-13.8-.8-.6c1.3-1.9 3.1-4.1 4.9-6.4l.8.6c-1.8 2.3-3.5 4.4-4.9 6.4zm10.3-12.1-.7-.7c1.9-1.9 3.8-3.7 5.8-5.5l.7.8c-2 1.7-4 3.5-5.8 5.4zm11.9-10.5-.6-.8c2.1-1.6 4.3-3.2 6.6-4.6l.6.8c-2.3 1.5-4.5 3-6.6 4.6zm13.3-8.8-.5-.9c2.3-1.3 4.7-2.6 7.1-3.8l.4.9c-2.3 1.2-4.7 2.5-7 3.8zm267-2.8v-1h8v1h-8zm-8.1-.2c-2.6-.1-5.3-.2-8-.4l.1-1c2.7.2 5.4.3 8 .4l-.1 1zm24.1-.2-.1-1c1-.1 2.1-.1 3.1-.2 1.6-.1 3.2-.2 4.8-.4l.1 1c-1.6.1-3.2.3-4.9.4-.9.1-2 .2-3 .2zm-40.1-.8c-2.6-.2-5.3-.4-8-.7l.1-1c2.7.3 5.4.5 8 .7l-.1 1zm56.1-.6-.1-1c2.6-.3 5.3-.7 7.9-1.1l.2 1c-2.7.4-5.4.8-8 1.1zm-72-.9c-2.7-.3-5.3-.6-7.9-1l.1-1c2.6.3 5.3.7 7.9 1l-.1 1zm-212.7-1.6-.4-.9c2.4-1.1 4.9-2.1 7.4-3l.4.9c-2.5.9-5 1.9-7.4 3zm300.5-.1-.2-1c2.6-.5 5.2-1.1 7.8-1.8l.2 1c-2.6.7-5.2 1.3-7.8 1.8zm-103.7-.4c-2.6-.4-5.3-.8-7.9-1.1l.1-1c2.6.4 5.3.8 7.9 1.1l-.1 1zm-15.8-2.3c-2.6-.4-5.3-.8-7.9-1.2l.2-1c2.6.4 5.3.8 7.9 1.2l-.2 1zm135-1.2-.3-1c2.6-.8 5.1-1.6 7.6-2.5l.3.9c-2.4 1-5 1.8-7.6 2.6zm-150.8-1.3-7.9-1.3.2-1 7.9 1.3-.2 1zm-150.3-.3-.3-1c2.5-.8 5.1-1.6 7.7-2.3l.3 1c-2.6.7-5.2 1.5-7.7 2.3zm134.5-2.2c-2.6-.4-5.3-.8-7.9-1.2l.1-1c2.6.4 5.3.8 7.9 1.2l-.1 1zm181.7-1.6-.4-.9c2.5-1 4.9-2.1 7.3-3.2l.4.9c-2.3 1.1-4.8 2.2-7.3 3.2zm-300.8-.4-.2-1c2.6-.6 5.2-1.1 7.9-1.6l.2 1c-2.7.5-5.3 1-7.9 1.6zm103.3-.3c-2.6-.4-5.3-.7-7.9-1l.1-1c2.6.3 5.3.7 7.9 1l-.1 1zm-15.9-2c-2.6-.3-5.3-.6-7.9-.8l.1-1c2.7.2 5.3.5 8 .8l-.2 1zm-71.7-.5-.1-1c.1 0 3.3-.5 8-.9l.1 1c-4.4.4-7.7.9-8 .9zm55.8-1c-2.7-.2-5.4-.4-8-.5l.1-1c2.6.1 5.3.3 8 .5l-.1 1zm-39.9-.5-.1-1c2.6-.2 5.3-.3 8-.3v1c-2.6 0-5.3.1-7.9.3zm23.9-.3c-2.7-.1-5.4-.1-8-.1v-1c2.6 0 5.3 0 8 .1v1zm259.8-2-.5-.9.8-.4.5.9-.8.4z" fill="#000000" class="color000 svgShape"/><path fill="#d2e4ff" d="m114.3 107.5-.7 139.7c0 8.3 6.7 15.1 15 15.1l202 .6c4.1 0 7.4-3.3 7.4-7.4l.8-152.3c0-4.1-3.3-7.4-7.4-7.4L102 95.1c6.8 0 12.4 5.6 12.3 12.4z" class="colord2e4ff svgShape"/><path d="m130.9 262.2 229.5-.7c4.1 0 7.4-3.3 7.4-7.4l-.8-109.8c0-4.1-3.3-6.7-7.4-6.7H154.1c-6.4 0-11.6 5.3-11.6 11.7l.8 100.5c0 6.8-5.5 12.4-12.4 12.4z" fill="#000000" class="color000 svgShape"/><path fill="#060405" d="m330.7 263.4-202-.6c-8.6 0-15.6-7-15.5-15.6l.7-139.7c0-6.5-5.3-11.9-11.8-11.9v-1l229.5.7c2.1 0 4.1.8 5.6 2.3 1.5 1.5 2.3 3.5 2.3 5.6l-.8 152.3c-.1 4.3-3.6 7.9-8 7.9zM107 95.6c4.6 2 7.9 6.6 7.9 11.9l-.7 139.7c0 8.1 6.5 14.6 14.5 14.6l202 .6c3.8 0 6.9-3.1 6.9-6.9l.8-152.3c0-1.8-.7-3.6-2-4.9-1.3-1.3-3-2-4.9-2L107 95.6z" class="color060405 svgShape"/><path fill="#060405" d="M131 262.7v-1c6.6 0 11.8-5.4 11.8-11.9l-.8-100.6c0-6.7 5.4-12.1 12.1-12.2h205.6c4.6 0 7.9 3 7.9 7.2l.8 109.7c0 2.1-.8 4.1-2.3 5.6-1.5 1.5-3.5 2.3-5.6 2.3l-229.5.9zm23.1-124.6c-6.1 0-11.1 5-11.1 11.2l.8 100.5c0 5.4-3.3 10-7.8 11.9l224.6-.7c1.8 0 3.6-.7 4.9-2 1.3-1.3 2-3 2-4.9l-.8-109.7c0-3.6-2.9-6.2-6.9-6.2H154.1z" class="color060405 svgShape"/><path fill="#ffffff" d="M393.5 147.3v214.2c0 5.4-4.4 9.8-9.8 9.8h-205c-5.4 0-9.8-4.4-9.8-9.8V149.9c0-6.8-5.5-12.4-12.3-12.4h227.2c5.3.1 9.7 4.4 9.7 9.8z" class="colorfff svgShape"/><path d="M373.2 273.6H183.1c-2.9 0-5.3-2.4-5.3-5.3v-88.4c0-2.9 2.4-5.3 5.3-5.3h190.1c2.9 0 5.3 2.4 5.3 5.3v88.4c0 2.9-2.4 5.3-5.3 5.3z" opacity=".05" fill="#000000" class="color000 svgShape"/><path fill="#060405" d="M383.7 371.8h-205c-5.7 0-10.3-4.6-10.3-10.3V149.9c0-6.5-5.3-11.9-11.8-11.9v-1h227.2c5.7 0 10.3 4.6 10.3 10.3v214.2c-.1 5.7-4.7 10.3-10.4 10.3zM161.5 138.1c4.6 1.9 7.9 6.5 7.9 11.9v211.6c0 5.1 4.2 9.3 9.3 9.3h205c5.1 0 9.3-4.2 9.3-9.3V147.3c0-5.1-4.2-9.3-9.3-9.3H161.5z" class="color060405 svgShape"/><path fill="#bdd6ff" d="M204.2 150.8c0 2.2 1.7 3.9 3.9 3.9s3.9-1.8 3.9-3.9-1.8-3.9-3.9-3.9c-2.1 0-3.9 1.7-3.9 3.9zM193.8 150.8c0 2.2 1.7 3.9 3.9 3.9s3.9-1.8 3.9-3.9-1.8-3.9-3.9-3.9c-2.2 0-3.9 1.7-3.9 3.9zM183.3 150.8c0 2.2 1.7 3.9 3.9 3.9s3.9-1.8 3.9-3.9-1.8-3.9-3.9-3.9c-2.1 0-3.9 1.7-3.9 3.9zM376.1 270.6H186c-2.9 0-5.3-2.4-5.3-5.3v-88.4c0-2.9 2.4-5.3 5.3-5.3h190.1c2.9 0 5.3 2.4 5.3 5.3v88.4c0 2.9-2.3 5.3-5.3 5.3z" class="colorbdd6ff svgShape"/><path fill="#ffffff" d="M234.3 222.5h-40.9c-1.5 0-2.8-1.2-2.8-2.8v-36c0-1.5 1.2-2.8 2.8-2.8h40.9c1.5 0 2.8 1.2 2.8 2.8v36c-.1 1.5-1.3 2.8-2.8 2.8z" class="colorfff svgShape"/><path fill="#060405" d="M218.3 195h-2.9l-.8-2.8h-4.4v17h3.6v2.7h-10.3v-2.7h3.5v-17h-4.4l-.8 2.8H199l.2-6.1H218z" class="color060405 svgShape"/><path fill="#060405" d="M229.3 203.6h-1.8l-.5-1.8h-2.9v11h2.3v1.8h-6.7v-1.8h2.3v-11h-2.8l-.5 1.8h-1.9l.2-3.9h12.1z" class="color060405 svgShape"/><path fill="#6193f6" d="M243.7 182.5H303v13h-59.3z" class="color6193f6 svgShape"/><path fill="#ffffff" d="M243.7 200.6h64v2.5h-64zM315.1 200.6h56.4v2.5h-56.4zM324 207.1h47.6v2.5H324zM243.7 207.1h75.9v2.5h-75.9zM243.7 213.5h127.9v2.5H243.7zM243.7 219.9h36.2v2.5h-36.2zM352.5 219.9h19.1v2.5h-19.1zM288.5 219.9h55.7v2.5h-55.7zM190.6 226.4h109.2v2.5H190.6zM308.7 226.4h62.9v2.5h-62.9zM190.6 232.8h33.2v2.5h-33.2zM231.4 232.8h140.1v2.5H231.4zM190.6 239.3h94v2.5h-94zM292.1 239.3h79.4v2.5h-79.4zM190.6 245.7h152.8v2.5H190.6zM353.1 245.7h18.4v2.5h-18.4zM190.6 252.2h48.3v2.5h-48.3zM246.3 252.2h74.5v2.5h-74.5zM325.4 252.2h46.2v2.5h-46.2zM190.6 258.6h31v2.5h-31zM227.2 258.6h31.7v2.5h-31.7zM265.7 258.6h26.2v2.5h-26.2z" class="colorfff svgShape"/><path fill="#bdd6ff" d="M301.7 291.9v53.6c0 1.7-1.4 3.2-3.2 3.2H185.8c-1.7 0-3.2-1.4-3.2-3.2v-53.6c0-1.7 1.4-3.2 3.2-3.2h112.7c1.8 0 3.2 1.5 3.2 3.2z" class="colorbdd6ff svgShape"/><path fill="#ffffff" d="M243.5 298.9v38.8c0 1.6-1.3 2.8-2.8 2.8h-48.4c-1.6 0-2.8-1.3-2.8-2.8v-38.8c0-1.6 1.3-2.8 2.8-2.8h48.4c1.6 0 2.8 1.2 2.8 2.8zM250.8 303.6h44.4v7.7h-44.4zM251 317.4h44v2.9h-44zM251 323.8h44v2.9h-44zM251 330.1h9.2v2.9H251zM265.6 330.1h4v2.9h-4z" class="colorfff svgShape"/><path fill="#060405" d="m234.8 330-36.7-.2c-.5 0-.8-.6-.5-1l12.6-17.1c.3-.3.8-.3 1 0l7.5 10.5c.2.3.7.4 1 .1l4.8-5.2c.3-.3.7-.3 1 0l9.9 11.8c.3.4 0 1.1-.6 1.1zM221.5 310.1c0 1.9-1.6 3.5-3.5 3.5s-3.5-1.6-3.5-3.5 1.6-3.5 3.5-3.5c2 0 3.5 1.6 3.5 3.5z" class="color060405 svgShape"/><path d="M309.3 292.2h84.2v59.9h-84.2z" opacity=".05" fill="#000000" class="color000 svgShape"/><path fill="#bdd6ff" d="M431.1 291.9v53.6c0 1.7-1.4 3.2-3.2 3.2H315.2c-1.7 0-3.2-1.4-3.2-3.2v-53.6c0-1.7 1.4-3.2 3.2-3.2h112.7c1.8 0 3.2 1.5 3.2 3.2z" class="colorbdd6ff svgShape"/><path fill="#ffffff" d="M372.9 298.9v38.8c0 1.6-1.3 2.8-2.8 2.8h-48.4c-1.6 0-2.8-1.3-2.8-2.8v-38.8c0-1.6 1.3-2.8 2.8-2.8h48.4c1.5 0 2.8 1.2 2.8 2.8zM380.2 303.6h44.4v7.7h-44.4zM380.4 317.4h44v2.9h-44zM380.4 323.8h44v2.9h-44zM380.4 330.1h9.2v2.9h-9.2zM394.9 330.1h4v2.9h-4z" class="colorfff svgShape"/><path fill="#060405" d="m364.2 329.6-36.7-.2c-.5 0-.8-.6-.5-1l12.6-17.1c.3-.3.8-.3 1 0l7.5 10.5c.2.3.7.4 1 .1l4.8-5.2c.3-.3.7-.3 1 0l9.9 11.8c.3.4 0 1.1-.6 1.1z" class="color060405 svgShape"/><path fill="#060405" d="M350.9 310.1c0 1.9-1.6 3.5-3.5 3.5s-3.5-1.6-3.5-3.5 1.6-3.5 3.5-3.5 3.5 1.6 3.5 3.5zM517.1 422.3l-16.8-97.8-14.3 97.8h-13l-4.9-129.4H532c2.2 4.8 0 110-2 129.6l-12.9-.2z" class="color060405 svgShape"/><path fill="#ffffff" d="M550.5 280.2c7.2-7.7-2.3-41.5-2.3-41.5l-18.5 14.9 1.7 8.9" class="colorfff svgShape"/><path fill="#060405" d="M550.5 280.7c-.1 0-.2 0-.3-.1-.2-.2-.2-.5 0-.7 6.4-6.8-.9-35.3-2.2-40.3l-17.6 14.2 1.7 8.6c.1.3-.1.5-.4.6-.3.1-.5-.1-.6-.4l-1.7-8.9c0-.2 0-.4.2-.5l18.5-14.9c.1-.1.3-.1.5-.1.2.1.3.2.3.3.4 1.4 9.5 34.2 2.2 42-.4.2-.5.2-.6.2z" class="color060405 svgShape"/><path fill="#ffffff" d="m457.1 267.1 17.4-7.5 8.9-18.8-24-9.8s1.2 9-3.2 14.2c-4.4 5.3-9.3 12.1-9.6 12-.8-.2 10.5 9.9 10.5 9.9z" class="colorfff svgShape"/><path fill="#060405" d="M457.1 267.6c-.1 0-.2 0-.3-.1-11-9.9-10.9-10.1-10.6-10.5.1-.1.2-.2.3-.2.4-.3 1.8-2.2 3.2-4 1.8-2.3 4-5.3 6.2-7.8 4.3-5 3.1-13.8 3.1-13.9 0-.2 0-.4.2-.5.1-.1.3-.1.5-.1l24 9.8.3.3v.4l-8.9 18.8c-.1.1-.1.2-.3.2l-17.4 7.5c-.2.1-.3.1-.3.1zm-9.8-10.3c1.3 1.3 6.5 6.1 9.9 9.2l16.9-7.3 8.6-18.2-22.7-9.3c.2 2.4.4 9.3-3.4 13.8-2.2 2.5-4.4 5.5-6.2 7.8-1.8 2.4-2.6 3.5-3.1 4z" class="color060405 svgShape"/><path fill="#6193f6" d="m528.9 255.6 3.9 44.4c0 6.1-65.4 6.1-65.4 0l2.5-52v-.1s-13.2-9.2-14.6-19.8c0 0-.8 1.3 0 0 3.5-5.5 14.7-20.8 32.4-26 3.4-1 7.1-1.6 11-1.8 4.8-.1 9.4.6 13.6 1.8 3.4 1 6.6 2.4 9.7 4.1 20.5 11.3 30.8 37.1 30.8 37.1s.2-.7-1.8 1.4c-6 5.9-13.9 10.8-22.1 10.9z" class="color6193f6 svgShape"/><path fill="#6193f6" d="M521.9 206.3c21.1 11.7 31.8 38.2 31.8 38.2s.2-.6-1.9 1.5c-8 8-16.3 11.2-22.6 11.3" class="color6193f6 svgShape"/><path d="m528.6 257.4-6.3-19.1c-.1-.3.1-.5.3-.6.3-.1.5.1.6.3l6.3 19.1c.1.3-.1.5-.3.6-.2.1-.5-.1-.6-.3zM469.9 248.5c-.3 0-.5-.3-.5-.6l1.8-12.4c0-.3.3-.5.6-.4.3 0 .5.3.4.6l-1.8 12.4c0 .2-.2.4-.5.4z" fill="#000000" class="color000 svgShape"/><path fill="#ffffff" d="M508 201.1s-5.2 8.7-18.9 12.3l-.7-11.4s1.3-5.7 1.7-10.7c.4-4.8 11.4-15.2 12.1-15.8s.4 7.4 2.2 14.8c1 3.9 1.6 7.9 3.6 10.8z" class="colorfff svgShape"/><path fill="#060405" d="M488.8 213.9c-.4-.3-.1 0-.9-11.8v-.1c0-.1 1.3-5.8 1.7-10.6.5-5.3 12.2-16.1 12.3-16.2.1 0 .1-.1.2-.1h.3c.2.1.3.2.3.4 0 .1.4 7.4 2.1 14.7.2.8.4 1.5.5 2.3.7 3.2 1.4 6.1 2.9 8.4.1.2.1.4 0 .5-.2.4-5.5 8.9-19.2 12.6.1 0-.1-.1-.2-.1zm.1-11.9.7 10.8c11.6-3.3 16.9-10.3 17.8-11.7-1.5-2.4-2.2-5.3-2.9-8.5-.2-.8-.3-1.5-.5-2.3-1.4-5.8-1.9-11.6-2.1-13.9-2.6 2.5-10.9 10.9-11.2 14.8-.5 4.8-1.6 10.2-1.8 10.8z" class="color060405 svgShape"/><path fill="#ffffff" d="M502.8 177.6s.4 18.4-14.2 19.9c-16.7 1.8-10.3-32.1-10.3-32.1l11-8.5 12.9 2.8 5.9 8.7-5.3 9.2z" class="colorfff svgShape"/><path fill="#060405" d="M487.4 198.1c-2.6 0-4.8-.9-6.5-2.8-7.2-7.8-3.2-29.1-3-30 0-.1.1-.2.2-.3l11-8.5c.1-.1.3-.1.4-.1l12.9 2.8c.1 0 .2.1.3.2l5.9 8.7c.1.2.1.4 0 .5l-5.1 9.1c0 1.7-.5 18.8-14.7 20.3-.6.1-1 .1-1.4.1zm-8.6-32.4c-.4 2.1-3.7 21.9 2.8 29 1.7 1.9 4.1 2.7 7 2.4 14-1.5 13.8-19.3 13.8-19.4 0-.1 0-.2.1-.3l5-8.9-5.6-8.3-12.5-2.7-10.6 8.2z" class="color060405 svgShape"/><path fill="#060405" d="M513.9 172.4c3.6 3.6-2.1 16.8-9.4 17.8-1.8-7.4-2.5-14.8-2.5-14.8s-2.2-4.2-2.3-4.3c-.1 0-3.2-1.9-2.7-4.5.6-2.6-.7-2.1-2.8-1.8-3.4.4-19.7 7.8-22.7 1.1-6.4-14.7 16.1-16.3 24.9-14.5 8.8 1.8 11 4.2 15.5 8.7 1.7 1.8-1.4 8.9 2 12.3z" class="color060405 svgShape"/><path fill="#060405" d="M481.2 176.6c0 .9.5 1.6 1 1.6.6 0 1-.7 1-1.6 0-.9-.5-1.6-1-1.6s-1 .7-1 1.6zM490.1 177.1c0 .9.5 1.6 1 1.6.6 0 1-.7 1-1.6 0-.9-.5-1.6-1-1.6-.6.1-1 .8-1 1.6z" class="color060405 svgShape"/><path d="m486.6 185.2-1.9-1.7c-.2-.2-.7-.7-.5-1.3.2-.6.8-.7 1.1-.9.3-.2.4-.7.5-1.2l.4-3.6c0-.3.3-.5.6-.4.3 0 .5.3.4.6l-.4 3.6c-.1.5-.2 1.5-.9 2-.1.1-.7.3-.7.3s0 .1.3.3l1.9 1.7c.2.2.2.5 0 .7-.2.1-.6.1-.8-.1zM486.6 190.5c-.2-.2-.2-.5-.1-.7.2-.2.5-.2.7-.1.9.8 2.3.7 3.1-.1.2-.2.5-.2.7 0 .2.2.2.5 0 .7-1.1 1.3-3.1 1.4-4.4.2zM495.6 220.2c-1.7-1-6.6-6.2-6.8-6.4-.2-.2-.2-.5 0-.7.2-.2.5-.2.7 0 0 .1 5 5.3 6.6 6.3 1.5.9 2 .8 3-.7l6.1-9.4c.1-.2.5-.3.7-.1.2.1.3.5.1.7l-6.1 9.4c-1.2 1.9-2.4 2.1-4.3.9z" fill="#000000" class="color000 svgShape"/><path d="M483.3 216.1c-2.1-.4-2.5-1.6-1.5-3.5l2.6-5.4c.1-.2.4-.4.7-.2.2.1.4.4.2.7l-2.6 5.4c-.8 1.6-.3 1.9.8 2.1 1 .2 3.8-1.2 5.3-2.1.2-.1.5-.1.7.2.1.2.1.5-.2.7-1.3.7-4.4 2.4-6 2.1z" fill="#000000" class="color000 svgShape"/><path fill="#6193f6" d="M516.5 424.5v-2.3H530c.2 4.4.5 12.6.6 12.6h-22c-.7-7.1 7.9-10.3 7.9-10.3z" class="color6193f6 svgShape"/><path fill="#060405" d="M509 431.7c-.3.9-.4 2-.3 3.1h22s-.1-1.3-.2-3.1H509z" class="color060405 svgShape"/><path fill="#6193f6" d="M472.5 424.5v-2.3H486c.2 4.4.5 12.6.6 12.6h-22c-.7-7.1 7.9-10.3 7.9-10.3z" class="color6193f6 svgShape"/><path fill="#060405" d="M465 431.7c-.3.9-.4 2-.3 3.1h22s-.1-1.3-.2-3.1H465z" class="color060405 svgShape"/><path fill="#fe6021" d="M437 205.2h32.7v110.6H437z" transform="rotate(-43.448 453.317 260.49)" class="colorfe6021 svgShape"/><path fill="#f2cb2a" d="m427.2 209.1-23.8 22.5-4.5-20.6-2.3-10.4 10.3 2.9z" class="colorf2cb2a svgShape"/><path fill="#060405" d="m406.9 203.5-8 7.5-2.3-10.4z" class="color060405 svgShape"/><path fill="#060405" d="M477.4 299.7h32.7v6.9h-32.7z" transform="rotate(-43.448 493.728 303.153)" class="color060405 svgShape"/><path fill="#f2cb2a" d="m516.8 312-15.5 14.7c-2.3 2.2-5.9 2.1-8.1-.2l-9-9.5 23.7-22.5 9 9.5c2.3 2.2 2.2 5.8-.1 8z" class="colorf2cb2a svgShape"/><path d="M440.1 213.1h9.7v110.6h-9.7z" opacity=".05" transform="rotate(-43.448 444.95 268.418)" fill="#000000" class="color000 svgShape"/><path fill="#ffffff" d="M434.1 268.2c-2.6 1.8-10.6-9.5-8-11.3 2.6-1.8 6.5-.8 8.7 2.3 2.2 3.1 1.9 7.2-.7 9z" class="colorfff svgShape"/><path fill="#060405" d="M432.2 268.6c-2.8-1.3-6.9-7.1-7.2-10.2-.1-1.2.3-1.7.7-2 3-2.1 7.2-.7 9.4 2.4 2.4 3.4 2 7.7-.9 9.7-.5.6-1.3.5-2 .1zm1.9-.4zm-7.8-10.9c-.2.2-.3.5-.3 1.1.3 2.8 4.1 8.2 6.6 9.4.5.2.9.3 1.1.1 2.4-1.7 2.7-5.4.6-8.3-1.8-2.8-5.4-4.1-8-2.3z" class="color060405 svgShape"/><path fill="#ffffff" d="M456.9 197.3h9.7v110.6h-9.7z" opacity=".1" transform="rotate(-43.448 461.685 252.567)" class="colorfff svgShape"/><path fill="#ffffff" d="m531.4 262.5-46.7 4.6s-1-6.3-3.5-4.8 0 3.6 0 3.6-14.4.1-10.7 9.2c3.8 9.1 17.3 3.6 17.3 3.6s51.3 13.7 62.6 1.6" class="colorfff svgShape"/><path fill="#060405" d="M531.3 285.7c-18 0-40.9-5.9-43.4-6.6-1.6.6-14.1 5-17.8-3.9-.9-2.3-.9-4.2.1-5.8 2.1-3.2 7.6-3.9 9.9-4.1-.3-.5-.6-1.1-.6-1.8.1-.7.5-1.4 1.4-1.9.7-.4 1.4-.3 1.7-.1 1.5.7 2.2 3.6 2.5 4.8l46.2-4.5c.3 0 .5.2.5.4 0 .3-.2.5-.4.5l-46.7 4.6c-.3 0-.5-.2-.5-.4-.2-1.5-1-4.1-2-4.5-.2-.1-.4-.1-.8.1-.5.3-.8.7-.9 1.1-.1.9.9 1.7.9 1.7.4.3.1.9-.3.9-.1 0-7.8.1-10.1 3.7-.9 1.3-.9 2.9-.1 4.9 3.6 8.5 16.6 3.4 16.7 3.3h.3c.5.1 51.1 13.4 62.1 1.7.2-.2.5-.2.7 0 .2.2.2.5 0 .7-3.5 3.9-10.9 5.2-19.4 5.2z" class="color060405 svgShape"/><path fill="#6193f6" d="M105.9 410.5c-.2-2.5.4-5 1.6-7.2.5-.8 1.4-2.5 2.3-2.9.8-.4 3 1.1 3.9 1.5 0-1.6 0-3.2.4-4.8 2.4-1.4 4.2-3 5.8-5.3 1.6 2.9 2.8 5.9 3.6 9.1.4 1.7.7 3.4.3 5.1-.4 1.6-1.3 2.9-2.5 4s-2.5 2-3.9 2.8c-2.4 1.5-5.9-.4-8.5-1.7-1-.4-1.7-.6-3-.6z" class="color6193f6 svgShape"/><path fill="#6193f6" d="M147.8 347.7c.9 3.5.5 7.2-.6 10.6-1.1 3.4-2.9 6.7-5.3 9.4-4.8 5.6-11.1 9.2-17 13.1-6 3.7-11.8 7.9-15.7 13.8-3.9 5.8-6.1 12.8-6.3 19.9-.5-7.1 1.4-14.4 5.2-20.6 3.8-6.3 9.9-10.7 15.9-14.5 6-3.8 12.2-7.4 17-12.5 2.4-2.5 4.2-5.6 5.5-8.9 1.2-3.2 1.8-6.7 1.3-10.3z" class="color6193f6 svgShape"/><path fill="#6193f6" d="M147.8 347.7s7 14.8-1.5 26l-2.6-.8v2.7s-5.1 2.8-12.7 1.5v-.9l3.6-2.3 3.3-2.2 4-4.6 2.9-4 2-3.2 1.6-7-.6-5.2zM153.7 399.6s-3.9 2.7-10.5 1.5c-6.6-1.1-20.1-15-31-10.9l3.9-3.9s15.9-8.8 26.9-5.1c11.1 3.7 10.7 18.4 10.7 18.4z" class="color6193f6 svgShape"/><path d="M153.7 399.6s-3.9 2.7-10.5 1.5c-6.6-1.1-20.1-15-31-10.9.4-.3 7.7-4.9 11.4-4.8 6.3.1 9.9 3.3 17.1 9.3 7.2 6.1 13 4.9 13 4.9z" opacity=".1" fill="#000000" class="color000 svgShape"/><path fill="#6193f6" d="M108 377.4s21.8 1 27.6-18.4l-7.7-1.7 8.2-4.6s.7-13.2 4.1-17.6c-.1-.1-46.2 5.4-32.2 42.3zM99.7 409.3c.4-3.6.2-7.2-.3-10.8-.5-3.6-1.5-7.1-3.1-10.3-1.5-3.2-3.7-6.2-6.5-8.5-2.7-2.3-6-3.9-9.5-4.9l2.6.7c.4.1.9.3 1.3.5l1.3.5c.9.3 1.6.8 2.4 1.3l1.2.7 1.1.9c2.9 2.3 5.1 5.3 6.7 8.5 1.6 3.3 2.6 6.9 3 10.5.4 3.7.4 7.4-.2 10.9z" class="color6193f6 svgShape"/><path fill="#6193f6" d="M92.4 381.8c-19.9 5.3-20.3-14.4-20.3-14.4 4.3 4.1 10.7 2.3 15.9 5.2 5.2 3 4.4 9.2 4.4 9.2zM101 409c-.2-3.2-.4-6.4-.7-9.6-.3-3.2-.6-6.4-1.1-9.5-.5-3.2-1.1-6.3-1.8-9.4-.8-3.1-1.7-6.2-2.8-9.2 1.3 2.9 2.4 6 3.2 9.1.8 3.1 1.5 6.3 2 9.4.4 3.2.8 6.4 1 9.6.1 1.6.2 3.2.2 4.8v4.8z" class="color6193f6 svgShape"/><path fill="#6193f6" d="M95.6 374.1c-2.9-6.9-21-15.5-25.4-20-4.3-4.5-3.1-11.7-3.1-11.7 4.1 4 13.5 4.4 24.5 11.8s4 19.9 4 19.9zM97.1 404.5s.4-15.6-8.1-17.6c-8.5-2-12.3 0-12.3 0l.3 2.5-3.1-2.3s-6.3 1.8-8.8 1.3c0 0 1.4 4.6 9 6.4 7.6 1.7 17.8 2.1 23 9.7z" class="color6193f6 svgShape"/><path fill="#6193f6" d="M96.5 402.6c.5 1.2.8 2.5.9 3.8.1 1.3 0 2.6-.4 3.9l-.1-1.9-.1-1.9-.2-1.9c0-.7-.1-1.3-.1-2z" class="color6193f6 svgShape"/><path d="M95.6 374.1c-2.9-6.9-21-15.5-25.4-20-4.3-4.5-3.1-11.7-3.1-11.7s-.2 7.6 6.2 9.4c6.4 1.7 20.4 10.1 22.3 22.3z" opacity=".1" fill="#000000" class="color000 svgShape"/><path fill="#6193f6" d="M103.5 409c-.4-6.4.1-12.9 1.1-19.3 1.1-6.4 2.8-12.6 5.3-18.6 1.2-3 2.7-5.9 4.3-8.7 1.6-2.8 3.4-5.5 5.5-8 4-5.1 9-9.4 14.4-12.8-2.6 1.9-5.2 3.8-7.4 6.1-.6.5-1.2 1.1-1.7 1.7l-1.7 1.7c-1 1.2-2.1 2.4-3.1 3.7-2 2.5-3.7 5.2-5.3 8-1.6 2.8-3 5.7-4.2 8.6-2.5 5.9-4.2 12.1-5.4 18.4-.6 3.1-1 6.3-1.3 9.5-.4 3.2-.6 6.5-.5 9.7z" class="color6193f6 svgShape"/><path fill="#ffffff" d="M114.1 434.9H96.2c-1 0-1.9-.7-2.1-1.7L89.4 412h31.5l-4.6 21.1c-.3 1-1.2 1.8-2.2 1.8z" class="colorfff svgShape"/><path fill="#d2e4ff" d="m116.4 431.9-.3 1.3c-.2 1-1.1 1.7-2.1 1.7H96.1c-1 0-1.9-.7-2.1-1.7L89.3 412h3l1.2 5.3c1.9 8.5 9.4 14.5 18.1 14.5h4.8z" class="colord2e4ff svgShape"/><path fill="#060405" d="M114.1 435.4H96.2c-1.3 0-2.4-.9-2.6-2.1l-4.8-21.8h32.7l-4.8 21.8c-.3 1.2-1.4 2.1-2.6 2.1zM90 412.5l4.5 20.5c.2.8.9 1.3 1.7 1.3h17.9c.8 0 1.5-.5 1.7-1.3l4.5-20.5H90z" class="color060405 svgShape"/><path fill="#ffffff" d="M123.1 413.1H87.2c-.5 0-.9-.3-1-.8l-1-5.3c-.1-.6.4-1.2 1-1.2h38c.6 0 1.1.6 1 1.2l-1 5.3c-.2.5-.7.8-1.1.8z" class="colorfff svgShape"/><path fill="#060405" d="M123.1 413.6H87.2c-.7 0-1.3-.5-1.5-1.2l-1-5.3c-.1-.4 0-.9.3-1.3s.7-.6 1.2-.6h38c.5 0 .9.2 1.2.6.3.4.4.8.3 1.3l-1 5.3c-.3.7-.9 1.2-1.6 1.2zm-37-7.3c-.2 0-.3.1-.4.2-.1.1-.1.3-.1.4l1 5.3c0 .2.3.4.5.4H123c.2 0 .5-.2.5-.4l1-5.3c0-.2 0-.3-.1-.4-.1-.1-.2-.2-.4-.2H86.1z" class="color060405 svgShape"/><path fill="#bdd6ff" d="m488.7 138.4 23.3-50-33.5 15.3 4.2 9.3 14.5-9.8-12.2 18.3z" class="colorbdd6ff svgShape"/><path fill="#060405" d="m482.7 113 6.9 1.6 7.6-11.4zM59.8 150.5c6.7 2.1 13.7 1 19.2-2.5l-3.4-4.6c.1-.1 1.7-1.3 1.6-1.2l3.5 4.7c3.5-2.7 6.3-6.5 7.8-11.1 3.8-12-2.8-24.7-14.7-28.6-12-3.8-24.7 2.8-28.6 14.7-3.9 12 2.7 24.8 14.6 28.6z" class="color060405 svgShape"/><path fill="#060405" d="m89.9 156.6-1.3 1-11.9-16 1.3-1z" class="color060405 svgShape"/><path fill="#ffffff" d="M76.6 138H56.1c-1.3 0-2.3-1-2.3-2.3v-13.6c0-1.2 1-2.3 2.3-2.3h20.5c1.3 0 2.3 1 2.3 2.3v13.6c-.1 1.3-1.1 2.3-2.3 2.3zm-20.5-16.6c-.4 0-.8.3-.8.8v13.6c0 .4.4.8.8.8h20.5c.4 0 .8-.4.8-.8v-13.6c0-.4-.3-.8-.8-.8H56.1z" class="colorfff svgShape"/><path fill="#ffffff" d="m64.9 130.6-10.2-9 1-1.1 10.2 9c.3.2.6.2.9 0l10.2-9 1 1.1-10.2 9c-.8.7-2.1.7-2.9 0z" class="colorfff svgShape"/><path fill="#060405" d="M442.7 106.4c0 9.1-6.4 16.7-14.9 18.6l-4.2 5.5-4.2-5.5c-8.5-1.9-14.9-9.5-14.9-18.6 0-10.5 8.5-19.1 19.1-19.1 10.6 0 19.1 8.6 19.1 19.1z" class="color060405 svgShape"/><path fill="#ffffff" d="M419.5 112.9c0-.1.2-1.3.6-3.7h-1.9c-.7 0-1.2-.9-.6-1.5.2-.2.4-.3.6-.3h2.2l.6-3.7h-1.9c-.5 0-.9-.4-.9-.9s.4-.9.9-.9h2.2l.6-3.9c.1-.4.4-.7.9-.7s.9.4.9.9c0 .1-.2 1.3-.6 3.7h3.1l.6-3.9c.1-.4.4-.7.9-.7s.9.4.9.9c0 .1-.2 1.3-.6 3.7h1.9c.5 0 .9.4.9.9s-.4.9-.9.9h-2.2l-.6 3.7h1.9c.5 0 .9.4.9.9s-.4.9-.9.9h-2.2l-.6 3.9c-.1.4-.4.7-.9.7-.4 0-.9-.3-.9-.9 0-.1.2-1.3.6-3.7h-3.1l-.6 3.9c-.1.4-.4.7-.9.7s-.9-.3-.9-.9zm2.6-5.4h3.1l.6-3.7h-3.1l-.6 3.7z" class="colorfff svgShape"/><path fill="#c6e2fa" d="M176.4 304h-38.8c-.2 0-.4-.2-.4-.4s.2-.4.4-.4h38.8c.2 0 .4.2.4.4s-.2.4-.4.4zM176.4 323.2h-38.8c-.2 0-.4-.2-.4-.4s.2-.4.4-.4h38.8c.2 0 .4.2.4.4s-.2.4-.4.4zM169.3 313.6h-54.9c-.2 0-.4-.2-.4-.4s.2-.4.4-.4h54.9c.2 0 .4.2.4.4s-.1.4-.4.4z" class="colorc6e2fa svgShape"/><path fill="#c6e2fa" d="M145.6 304c-.2 0-.4-.2-.4-.4v-8.2c0-.2.2-.4.4-.4s.4.2.4.4v8.2c-.1.2-.2.4-.4.4zM159.2 313.6c-.2 0-.4-.2-.4-.4v-9.6c0-.2.2-.4.4-.4s.4.2.4.4v9.6c0 .2-.2.4-.4.4zM148.8 322.9c-.2 0-.4-.2-.4-.4v-9.3c0-.2.2-.4.4-.4s.4.2.4.4v9.3c0 .2-.2.4-.4.4zM402.5 390.9h-38.8c-.2 0-.4-.2-.4-.4s.2-.4.4-.4h38.8c.2 0 .4.2.4.4s-.2.4-.4.4zM402.5 410.2h-38.8c-.2 0-.4-.2-.4-.4s.2-.4.4-.4h38.8c.2 0 .4.2.4.4s-.2.4-.4.4zM395.5 400.6h-54.9c-.2 0-.4-.2-.4-.4s.2-.4.4-.4h54.9c.2 0 .4.2.4.4s-.2.4-.4.4z" class="colorc6e2fa svgShape"/><path fill="#c6e2fa" d="M371.7 390.9c-.2 0-.4-.2-.4-.4v-8.2c0-.2.2-.4.4-.4s.4.2.4.4v8.2c0 .3-.2.4-.4.4zM385.3 400.6c-.2 0-.4-.2-.4-.4v-9.6c0-.2.2-.4.4-.4s.4.2.4.4v9.6c0 .2-.1.4-.4.4zM375 409.9c-.2 0-.4-.2-.4-.4v-9.3c0-.2.2-.4.4-.4s.4.2.4.4v9.3c-.1.2-.2.4-.4.4zM450.2 174.3h-29.3c-.2 0-.4-.2-.4-.4s.2-.4.4-.4h29.3c.2 0 .4.2.4.4s-.2.4-.4.4zM450.2 188.9h-29.3c-.2 0-.4-.2-.4-.4s.2-.4.4-.4h29.3c.2 0 .4.2.4.4s-.2.4-.4.4zM444.9 181.6h-41.5c-.2 0-.4-.2-.4-.4s.2-.4.4-.4h41.5c.2 0 .4.2.4.4s-.2.4-.4.4z" class="colorc6e2fa svgShape"/><path fill="#c6e2fa" d="M426.9 174.3c-.2 0-.4-.2-.4-.4v-6.2c0-.2.2-.4.4-.4s.4.2.4.4v6.2c0 .3-.2.4-.4.4zM437.2 181.6c-.2 0-.4-.2-.4-.4V174c0-.2.2-.4.4-.4s.4.2.4.4v7.3c0 .1-.2.3-.4.3zM429.4 188.6c-.2 0-.4-.2-.4-.4v-7c0-.2.2-.4.4-.4s.4.2.4.4v7c0 .3-.2.4-.4.4z" class="colorc6e2fa svgShape"/></svg>