<svg xmlns="http://www.w3.org/2000/svg" enable-background="new 0 0 600 550" viewBox="0 0 600 550"><linearGradient id="a" x1="291.223" x2="309.139" y1="124.458" y2="364.957" gradientUnits="userSpaceOnUse"><stop offset="0" stop-color="#cedcf9" stop-opacity="0" class="stopColorcedcf9 svgShape"/><stop offset="1" stop-color="#c3d2ff" class="stopColorc3d2ff svgShape"/></linearGradient><path fill="url(#a)" d="M501.333 382.441H99.638c-50.065 0-73.028-56.781-34.693-85.999.318-.249.647-.479.965-.728 8.736-6.567 14.447-16.163 14.447-30.194 3.402-18.406-15.382-23.308-20.406-55.207-8.845-56.064 21.241-92.905 54.88-111.65C226.97 36.151 439.796 36.151 531.42 96.64c17.64 11.66 26.972 44.594 19.839 60.14-43.917 95.736-20.118 121.595-1.722 155.357 17.65 32.377-8.397 70.304-48.204 70.304z"/><linearGradient id="b" x1="297.876" x2="299.949" y1="462.733" y2="377.739" gradientUnits="userSpaceOnUse"><stop offset="0" stop-color="#cedcf9" stop-opacity="0" class="stopColorcedcf9 svgShape"/><stop offset="1" stop-color="#c3d2ff" class="stopColorc3d2ff svgShape"/></linearGradient><path fill="url(#b)" d="M553.236 433.214v1.315c-.28 48.588-163.191 41.766-237.033 39.612-26.416 36.19-272.355 30.214-272.115-6.009.01-1.953.876-3.866 2.528-5.71 7.113-7.912 6.546-18.874-.388-26.906-2.323-2.69-2.283-4.356-2.2-6.487.896-26.109 22.745-46.608 48.832-46.588l408.848.21c28.057.01 51.19 22.481 51.528 50.563z"/><path fill="#f8fafb" d="M437.104 317.756v15.563a8.19 8.19 0 0 1-8.19 8.19H167.841a8.19 8.19 0 0 1-8.19-8.19v-15.563h277.452z" class="colorf8fafb svgShape"/><path fill="#373a50" d="M437.104 126.257v191.499H159.65v-191.5a8.19 8.19 0 0 1 8.19-8.19h261.072a8.19 8.19 0 0 1 8.19 8.19z" class="color373a50 svgShape"/><path fill="#ffffff" d="M170.261 131.541h256.234v172.3H170.261z" class="colorfff svgShape"/><path fill="#373a50" d="M304.288 328.78c0 3.255-2.65 5.905-5.915 5.905a5.907 5.907 0 0 1-5.906-5.905 5.91 5.91 0 1 1 11.82 0z" class="color373a50 svgShape"/><path fill="#e7edff" d="M264.958 341.51h66.962v19.911h-66.962z" class="colore7edff svgShape"/><path fill="#f8fafb" d="M346.858 382.441h-96.96c-2.788 0-4.115-3.421-2.062-5.311l17.138-15.709h66.809l17.139 15.709c2.053 1.89.715 5.311-2.064 5.311z" class="colorf8fafb svgShape"/><path fill="#ebf2ff" d="M416.38 99.707V281.63c0 6.795-5.512 12.307-12.308 12.307H192.69a12.3 12.3 0 0 1-12.308-12.307V99.707c0-6.796 5.512-12.308 12.308-12.308h211.383c6.796 0 12.308 5.512 12.308 12.308z" class="colorebf2ff svgShape"/><linearGradient id="c" x1="298.378" x2="298.378" y1="91.725" y2="98.538" gradientUnits="userSpaceOnUse"><stop offset="0" stop-color="#d1deff" class="stopColord1deff svgShape"/><stop offset="1" stop-color="#b2c7ff" class="stopColorb2c7ff svgShape"/></linearGradient><path fill="url(#c)" d="M416.379 106.404V99.71c0-6.798-5.511-12.31-12.31-12.31H192.688c-6.798 0-12.309 5.512-12.309 12.31v6.694h236z"/><path fill="#ffffff" d="M196.283 96.897a3.44 3.44 0 0 1-3.435 3.445 3.44 3.44 0 0 1 0-6.88c1.9 0 3.435 1.545 3.435 3.435zM205.983 96.897c0 1.9-1.535 3.445-3.435 3.445a3.44 3.44 0 0 1 0-6.88c1.9 0 3.435 1.545 3.435 3.435zM215.683 96.897a3.44 3.44 0 0 1-3.435 3.445 3.44 3.44 0 0 1 0-6.88c1.9 0 3.435 1.545 3.435 3.435z" class="colorfff svgShape"/><path d="M261.2 153.443V277.48a7.647 7.647 0 0 1-7.651 7.651h-72.66a12.314 12.314 0 0 1-.508-3.502V145.8h73.168c4.228 0 7.65 3.423 7.65 7.642z" opacity=".05" fill="#000000" class="color000 svgShape"/><linearGradient id="d" x1="211.213" x2="223.787" y1="232.654" y2="282.69" gradientUnits="userSpaceOnUse"><stop offset="0" stop-color="#d1deff" class="stopColord1deff svgShape"/><stop offset="1" stop-color="#b2c7ff" class="stopColorb2c7ff svgShape"/></linearGradient><path fill="url(#d)" d="M250.696 282.225h-89.068a7.687 7.687 0 0 1-7.687-7.687V150.575a7.687 7.687 0 0 1 7.687-7.687h89.068a7.687 7.687 0 0 1 7.687 7.687v123.963a7.687 7.687 0 0 1-7.687 7.687z"/><path fill="#ffffff" d="M235.081 264.189a3.636 3.636 0 0 1-3.648 3.648h-17.857a3.642 3.642 0 0 1-3.648-3.648 3.636 3.636 0 0 1 3.648-3.632h17.857a3.639 3.639 0 0 1 3.648 3.632zM202.396 264.189a3.636 3.636 0 0 1-3.648 3.648h-17.856a3.652 3.652 0 0 1-3.649-3.648 3.62 3.62 0 0 1 1.065-2.567 3.683 3.683 0 0 1 2.584-1.065h17.856a3.639 3.639 0 0 1 3.648 3.632z" class="colorfff svgShape"/><ellipse cx="206.162" cy="180.043" fill="#ffffff" rx="20.694" ry="21.04" class="colorfff svgShape"/><ellipse cx="206.162" cy="173.067" fill="#373a50" rx="3.948" ry="4.014" class="color373a50 svgShape"/><path fill="#373a50" d="M216.163 189.466c-.213-5.435-4.603-9.778-10-9.778-5.4 0-9.788 4.343-10.002 9.778h20.002z" class="color373a50 svgShape"/><linearGradient id="e" x1="175.343" x2="236.982" y1="213.434" y2="213.434" gradientUnits="userSpaceOnUse"><stop offset="0" stop-color="#909eff" class="stopColor909eff svgShape"/><stop offset="1" stop-color="#6977e3" class="stopColor6977e3 svgShape"/></linearGradient><path fill="url(#e)" d="M236.187 218.367h-60.05a.794.794 0 0 1-.794-.794v-8.277c0-.439.355-.794.794-.794h60.05c.439 0 .795.355.795.794v8.277a.794.794 0 0 1-.795.794z"/><path fill="#ffffff" d="M236.187 233.69h-60.05a.794.794 0 0 1-.794-.794v-6.155c0-.439.355-.794.794-.794h60.05c.439 0 .795.355.795.794v6.155a.794.794 0 0 1-.795.794zM236.187 245.932h-60.05a.794.794 0 0 1-.794-.794v-6.155c0-.439.355-.794.794-.794h60.05c.439 0 .795.355.795.794v6.155a.794.794 0 0 1-.795.794z" class="colorfff svgShape"/><path fill="#ff4129" d="M189.251 249.993h33.822v2.076h-33.822z" class="colorff4129 svgShape"/><linearGradient id="f" x1="335.406" x2="341.732" y1="112.087" y2="187.999" gradientUnits="userSpaceOnUse"><stop offset="0" stop-color="#909eff" class="stopColor909eff svgShape"/><stop offset="1" stop-color="#6977e3" class="stopColor6977e3 svgShape"/></linearGradient><path fill="url(#f)" d="M400.285 122.701v54.683a6.23 6.23 0 0 1-6.233 6.233H283.086a6.23 6.23 0 0 1-6.232-6.233v-54.683a6.23 6.23 0 0 1 6.232-6.232h110.966a6.23 6.23 0 0 1 6.233 6.232z"/><path fill="#ffffff" d="M342.957 165.72h-33.05l16.52-20.376 6.912 8.52z" class="colorfff svgShape"/><path fill="#ebf2ff" d="M342.957 165.72H323.72l9.619-11.856z" class="colorebf2ff svgShape"/><path fill="#ffffff" d="M367.236 165.722h-41.634l20.814-25.665zM336.385 138.323c0 2.187-1.778 3.965-3.965 3.965s-3.966-1.778-3.966-3.965c0-2.188 1.778-3.955 3.966-3.955s3.965 1.767 3.965 3.955z" class="colorfff svgShape"/><linearGradient id="g" x1="339.94" x2="339.94" y1="191.701" y2="233.69" gradientUnits="userSpaceOnUse"><stop offset="0" stop-color="#d1deff" class="stopColord1deff svgShape"/><stop offset="1" stop-color="#b2c7ff" class="stopColorb2c7ff svgShape"/></linearGradient><path fill="url(#g)" d="M397.783 233.69H282.097a2.502 2.502 0 0 1-2.502-2.502v-36.985a2.502 2.502 0 0 1 2.502-2.502h115.686a2.502 2.502 0 0 1 2.502 2.502v36.985a2.502 2.502 0 0 1-2.502 2.502z"/><path fill="#ffffff" d="M315.306 212.695c0 7.43-6.032 13.451-13.462 13.451s-13.452-6.021-13.452-13.451 6.021-13.452 13.452-13.452 13.462 6.021 13.462 13.452z" class="colorfff svgShape"/><path fill="#373a50" d="M307.816 206.4v4.24h-.598l-1.36-2.46h-2.745v10.778h1.89v1.673h-6.158v-1.673h1.848V208.18h-2.745l-1.36 2.46h-.706v-4.24z" class="color373a50 svgShape"/><path fill="#ffffff" d="M323.723 201.689h68.446v2.034h-68.446zM323.723 208.04h49.381v2.034h-49.381zM323.723 214.39h18.765v2.034h-18.765zM347.312 214.39h13.638v2.034h-13.638zM367.723 214.39h11.597v2.034h-11.597zM381.639 214.39h10.53v2.034h-10.53zM323.723 220.74h28.043v2.034h-28.043zM358.538 220.74h16.143v2.034h-16.143z" class="colorfff svgShape"/><linearGradient id="h" x1="321.182" x2="361.605" y1="239.101" y2="288.989" gradientUnits="userSpaceOnUse"><stop offset="0" stop-color="#d1deff" class="stopColord1deff svgShape"/><stop offset="1" stop-color="#b2c7ff" class="stopColorb2c7ff svgShape"/></linearGradient><path fill="url(#h)" d="M397.783 283.246H282.097a2.502 2.502 0 0 1-2.502-2.502v-36.986a2.502 2.502 0 0 1 2.502-2.502h115.686a2.502 2.502 0 0 1 2.502 2.502v36.986a2.502 2.502 0 0 1-2.502 2.502z"/><path fill="#ffffff" d="M318.325 263.61v-4.977h-3.631a13.17 13.17 0 0 0-2.018-4.898l2.561-2.56-3.544-3.528-2.547 2.547a13.084 13.084 0 0 0-4.895-2.03v-3.606h-4.995v3.606a13.082 13.082 0 0 0-4.895 2.03l-2.547-2.547-3.544 3.527 2.562 2.562a13.167 13.167 0 0 0-2.019 4.897h-3.631v4.978h3.627a13.123 13.123 0 0 0 2.02 4.9l-2.559 2.56 3.544 3.526 2.546-2.546c1.45.986 3.11 1.685 4.896 2.029v3.605h4.995v-3.605a13.096 13.096 0 0 0 4.896-2.03l2.546 2.547 3.544-3.527-2.558-2.558a13.116 13.116 0 0 0 2.019-4.901h3.627z" class="colorfff svgShape"/><linearGradient id="i" x1="295.375" x2="308.133" y1="261.122" y2="261.122" gradientUnits="userSpaceOnUse"><stop offset="0" stop-color="#d1deff" class="stopColord1deff svgShape"/><stop offset="1" stop-color="#b2c7ff" class="stopColorb2c7ff svgShape"/></linearGradient><path fill="url(#i)" d="M308.133 261.13a6.385 6.385 0 0 1-6.38 6.379 6.385 6.385 0 0 1-6.378-6.379c0-3.527 2.852-6.395 6.379-6.395 3.527 0 6.379 2.868 6.379 6.395z"/><path fill="#ffffff" d="M324.422 251.59h36.864v6.653h-36.864zM324.422 262.76h69.942v2.762h-69.942zM324.423 270.151h31.907v2.761h-31.907zM363.019 270.151h18.221v2.761h-18.221z" class="colorfff svgShape"/><path fill="#373a50" d="m56.733 464.473-2.583 10.792a3.767 3.767 0 0 0 3.57 4.489c9.521.319 28.238.003 31.693-.028a.514.514 0 0 0 .508-.495c.155-3.302-2.193-4.773-5.269-7.024l-12.456-8.389a.136.136 0 0 0-.077-.019l-15.386.674z" class="color373a50 svgShape"/><path fill="#ffdad9" d="M72.422 451.167s-.158 12.651-.226 12.651c.174 4.116-15.289 4.77-15.463.655l1.284-13.757 14.405.451z" class="colorffdad9 svgShape"/><path fill="#5062eb" d="M73.731 311.99 52.612 457.906c0 3.189 22.482 3.189 22.482 0l22.7-107.23-16.243-43.401-7.82 4.717z" class="color5062eb svgShape"/><path fill="#373a50" d="m102.003 464.473-2.584 10.792a3.767 3.767 0 0 0 3.57 4.489c9.522.319 28.238.003 31.694-.028a.514.514 0 0 0 .508-.495c.154-3.302-2.193-4.773-5.27-7.024l-12.456-8.389a.136.136 0 0 0-.076-.019l-15.386.674z" class="color373a50 svgShape"/><path fill="#ffdad9" d="M117.691 451.167s-.157 12.651-.226 12.651c.175 4.116-15.288 4.77-15.462.655l1.283-13.757 14.405.451z" class="colorffdad9 svgShape"/><path fill="#657bff" d="m123.39 316.573 3.069 74.6-4.805 67.041c0 4.61-22.306 4.61-22.306 0l1.239-65.31s-5.54-26.074-8.557-34.41c-5.862-16.192-15.741-30.428-4.795-45.17l36.155 3.25z" class="color657bff svgShape"/><path fill="#ffdad9" d="M187.044 269.693c-1.786 3.337-5.806 4.64-5.806 4.64s-20.977 28.954-32.105 28.966c-8.088 0-16.933-16.102-16.933-16.102l16.114-11.96 5.769 7.345 21.461-14.526s-1.526-8.213 1.191-7.667c2.705.546 1.625 3.337 1.625 3.337s7.68-11.872 9.379-9.924c1.712 1.935-5.272 9.924-5.272 9.924s6.363 2.63 4.577 5.967zM60.055 280.64s-5.975 11.335-5.354 15.352c2.052 13.276 24.5 16.19 24.5 16.19l3.363-24.658-1.23-7.509-21.28.625zM114.036 232.73l-.382 6.414-.362 6.08-14.268.804 1.576-18.078 8.373-7.834 1.93 4.798z" class="colorffdad9 svgShape"/><path fill="#fecdcb" d="m114.036 232.73-.382 6.414c-.989-.774-6.022-4.858-7.276-8.373-1.106-3.104 2.87-5.151 4.524-5.857l3.134 7.816z" class="colorfecdcb svgShape"/><path fill="#ffdad9" d="M123.251 221.487c.069 1.175.098 2.32.078 3.437-.035 2.94-.438 7.874-2.409 10.009-4.778 5.16-20.32-6.983-20.32-6.983v-17.97s10.351-11.036 14.592-9.273c3.408 1.41 5.865 7.158 7.148 13.612a18.608 18.608 0 0 0 1.45 4.309c.521 1.07.655 1.58-.539 2.859z" class="colorffdad9 svgShape"/><path fill="#fadf68" d="M81.974 274.476c-1.782 8.265-3.652 15.257-3.652 15.257-.5 1.166-4.534.226-8.872-1.44-5.749-2.222-12.055-5.718-11.39-7.266 0 0 12.476-25.921 23.836-32.668 5.465-3.252 2.889 13.024.078 26.117z" class="colorfadf68 svgShape"/><path fill="#eac250" d="M75.14 269.286c.92-3.32 1.576-6.894 2.83-10.097.89.588 1.096 3.28 1.36 4.319 2.659 10.452.65 2.6 2.644 10.968-1.782 8.265-3.652 15.257-3.652 15.257-.5 1.166-4.534.226-8.872-1.44 1.175-2.81 2.027-5.797 2.84-8.734" class="coloreac250 svgShape"/><path fill="#fadf68" d="M131.8 270.872c-1.478 20.604-7.615 60.473-7.615 60.473-.167.91-2.321 1.41-5.68 1.596-13.778.744-47.76-3.829-47.093-7.55 0 0 3.335-71.03 10.484-77.032 10.733-9.02 42.902-4.975 49.434 6.277 1.077 1.86 1.058 8.148.47 16.236z" class="colorfadf68 svgShape"/><path fill="#eac250" d="M131.8 270.872c-1.478 20.604-7.615 60.473-7.615 60.473-.167.91-2.321 1.41-5.68 1.596 3.653-7.149 8.115-22.144 7.723-30.046-.333-7.041-3.711-13.504-6.16-20.105-2.458-6.61-3.946-14.258-.675-20.496l-.549 2.977c4.858-.48 9.666 1.978 12.956 5.601z" class="coloreac250 svgShape"/><path fill="#fadf68" d="M129.284 252.07c2.614 1.302 21.528 21.537 21.528 21.537 2.252 1.86-14.492 22.13-16.744 20.27 0 0-12.224-13.428-14.728-20.23-3.966-10.775 5.052-24.016 9.944-21.578z" class="colorfadf68 svgShape"/><path fill="#111228" d="M99.47 237.799s8.498-5.541 8.436-10.59c-.061-5.05-5.824-11.022-1.373-12.869s4.76 4.433 6.73 3.017.776-4.248.776-4.248 9.075-2.586 8.89-11.083-6.037-14.162-10.961-11.452c-4.924 2.709-.49 6.095-6.278 6.403s-18.718 6.034-17.918 11.452c.8 5.419-6.218 6.25-2.647 11.684 3.57 5.433 14.346 17.686 14.346 17.686z" class="color111228 svgShape"/><ellipse cx="120.923" cy="215.465" fill="#111228" rx=".881" ry="1.635" transform="rotate(-9.197 120.923 215.465)" class="color111228 svgShape"/><path fill="#111228" d="M121.443 213.46c-.508-.212-.974-.206-1.36-.042-.385.17-.707.505-.902 1.02-.216-.535.122-1.23.703-1.478.579-.253 1.316-.024 1.56.5z" class="color111228 svgShape"/><path fill="#ffffff" d="M123.33 224.924c-.01.813-.04 1.607-.098 2.36-1.02.34-2.207-.477-2.253-1.997l2.35-.363z" class="colorfff svgShape"/><path fill="#ffdad9" d="m483.95 431.477.239 11.667a.12.12 0 0 0 .12.101l12.616-.138.617-5.99.544-5.235-14.137-.405z" class="colorffdad9 svgShape"/><path fill="#373a50" d="M469.13 454.958c0 .083.01.175.01.267.018.23.203.415.433.415 2.921.028 18.763.295 26.817.028 1.963-.065 3.392-1.871 3.023-3.797l-2.184-9.133-13.022-.571c-.027 0-.046 0-.064.018l-10.543 7.096c-2.635 1.327-4.47 3.032-4.47 5.677z" class="color373a50 svgShape"/><path fill="#ffdad9" d="m533.905 427.834 4.309 10.845a.12.12 0 0 0 .147.053l11.77-4.546-1.519-5.827-1.323-5.094-13.384 4.569z" class="colorffdad9 svgShape"/><path fill="#373a50" d="M528.244 455.017c.029.078.07.16.102.247.098.21.335.318.551.237 2.746-.997 17.679-6.292 25.13-9.362 1.816-.747 2.522-2.94 1.503-4.615l-5.243-7.79-12.398 4.023c-.026.01-.043.016-.054.04l-7.392 10.338c-2.004 2.166-3.125 4.404-2.199 6.882zM532.388 305.626s3.088 48.502 5.405 64.523c2.235 15.45 12.635 57.557 12.635 57.557.966 2.002-15.557 8.03-16.523 6.028 0 0-18.114-53.302-17.994-53.783.12-.481-7.456-36.32-7.456-36.32s-5.785 28.68-6.856 38.364c-1.448 13.102-2.285 52.677-2.285 52.677 0 2.637-17.537 2.637-17.537 0 0 0-5.32-42.651-5.223-57.03.122-18.07 10.373-71.535 10.373-71.535l45.46-.48z" class="color373a50 svgShape"/><path fill="#3bbfe2" d="M484.125 236.116c-8.069 3.408-17.564 30.315-17.564 30.315l-45.183 8.937 1.096 10.48 60.395-.875 14.184-29.834-2.217-16.329s-8.168-3.768-10.711-2.694z" class="color3bbfe2 svgShape"/><path fill="#51d1fe" d="M481.996 320.77c1.445 6.522 53.134 4.28 54.403-3.412 0 0 1.93-75.983-7.135-83.782-5.219-4.49-19.09-6.525-25.728-5.263-6.267 1.2-18.727 4.642-21.695 10.671-4.912 9.969.155 81.786.155 81.786z" class="color51d1fe svgShape"/><path fill="#111228" d="M502.048 194.379s-1.976 10.987-12.93 8.537c-10.951-2.441-8.156-14.8-8.156-14.8l13.789-.59 7.297 6.853z" class="color111228 svgShape"/><path fill="#111228" d="M518.402 190.407s3.725 17.885-9.885 31.14c-12.624 12.292-12.34-17.286-13.316-16.803l9.766-12.964 13.435-1.373z" class="color111228 svgShape"/><path fill="#ffdad9" d="M510.616 227.555s-6.363 9.57-12.838 9.93c-6.475.36-.243-8.655-.243-8.655.026-.1 1.49-3.034 1.263-6.274a.127.127 0 0 0-.01-.06 7.921 7.921 0 0 0-.462-2.226c5.144-2.47 8.916-9.263 9.013-9.38 0 0 .759 11.693 3.277 16.665z" class="colorffdad9 svgShape"/><path fill="#f4bebe" d="M503.66 218.565c-.784 2.875-3.69 5.677-5.057 6.878.169-.877.266-1.868.195-2.887a.127.127 0 0 0-.01-.06c1.862-1.03 3.501-2.463 4.872-3.931z" class="colorf4bebe svgShape"/><path fill="#ffdad9" d="M514.12 205.062c1.387 4.063-5.872 7.196-5.872 7.196s-4.025 7.643-10.212 10.63c-2.67 1.29-5.735 1.72-9.06.288-7.585-3.263-6.002-21.99-5.097-29.203.221-1.75.406-2.826.406-2.826l27.125-1.59-3.094 14.358s4.415-2.917 5.804 1.147z" class="colorffdad9 svgShape"/><ellipse cx="496.26" cy="204.846" fill="#111228" rx="1.536" ry="1.102" transform="rotate(-73.787 496.26 204.846)" class="color111228 svgShape"/><ellipse cx="487.727" cy="203.616" fill="#111228" rx="1.536" ry="1.102" transform="rotate(-73.787 487.727 203.616)" class="color111228 svgShape"/><path fill="#111228" d="M487.263 201.402c.19-.219.424-.4.667-.573a1.22 1.22 0 0 1 1.703.443c.125.273.217.554.263.841-.231-.194-.398-.406-.565-.603-.351-.31-.66-.464-1.268-.322-.246.09-.501.17-.8.214zM495.608 202.376c.19-.219.425-.4.668-.572a1.22 1.22 0 0 1 1.703.442c.125.274.217.554.263.841-.232-.193-.398-.406-.565-.602-.353-.311-.66-.464-1.268-.322-.246.089-.501.17-.8.213zM491.87 203.428c-.039 1.03-.269 3.89-.716 4.967-.46 1.08-1.253 1.272-1.519 1.926-.262.696.24 1.481.73 2.123-.721-.597-1.331-1.324-1.097-2.239.182-.686 1.053-1.115 1.428-2.009.356-.809.587-2.766 1.173-4.768z" class="color111228 svgShape"/><path fill="#ffffff" d="M493.437 216.192c-.003.026 0 .05-.003.076a2.96 2.96 0 1 1-5.86-.845c.004-.025.014-.048.019-.073 1.87.885 3.816 1.176 5.844.842z" class="colorfff svgShape"/><path fill="#111228" d="M514.12 205.062c-1.389-4.064-5.804-1.147-5.804-1.147l-1.499 1.487-2.161-6.943s-14.006.847-21.801-1.792c-2.817-.943-3.846-5.043-4.217-7.098-1.396-7.724 11.45-10.078 11.45-10.078-1.101 2.732 1.405 4.113 1.405 4.113 4.626-6.044 10.41-5.655 10.41-5.655s-1.928 4.727.984 6.356c2.921 1.625 9.909-2.56 15.812 1.728 8.167 5.932-4.58 19.029-4.58 19.029z" class="color111228 svgShape"/><path fill="#ffdad9" d="m482.115 279.61-9.77-1.223s-4.319-1.264-3.234-4.995c1.074-3.731 13.004 6.218 13.004 6.218z" class="colorffdad9 svgShape"/><linearGradient id="j" x1="420.023" x2="472.347" y1="280.311" y2="280.311" gradientUnits="userSpaceOnUse"><stop offset="0" stop-color="#f34b6d" class="stopColorf34b6d svgShape"/><stop offset="1" stop-color="#e24067" class="stopColore24067 svgShape"/></linearGradient><path fill="url(#j)" d="M468.899 306.474H423.47a3.449 3.449 0 0 1-3.448-3.45v-45.426a3.449 3.449 0 0 1 3.448-3.45H468.9a3.449 3.449 0 0 1 3.448 3.45v45.427a3.449 3.449 0 0 1-3.448 3.449z"/><path fill="#ffffff" d="m438.358 285.484-9.807-4.4c-.525-.247-.885-.691-.885-1.278v-.196c0-.59.363-1.032.885-1.279l9.807-4.4c.698-.261 1.377.199 1.377.91 0 .409-.284.776-.664.934l-8.848 3.933 8.848 3.932c.706.296.875 1.142.381 1.635-.3.3-.724.347-1.094.209z" class="colorfff svgShape"/><path fill="#ffffff" d="m438.184 285.95-.03-.012-9.807-4.4c-.716-.337-1.178-.955-1.178-1.732v-.196c0-.778.464-1.396 1.17-1.729l9.815-4.403c1.168-.444 2.078.408 2.078 1.363 0 .616-.408 1.16-.97 1.393l-7.814 3.474 7.825 3.478c1.023.427 1.271 1.7.53 2.44-.437.438-1.066.53-1.619.324zm.362-.928c.222.08.415.04.554-.099.247-.245.155-.667-.221-.824l-9.882-4.391 9.872-4.387c.245-.103.368-.308.368-.48 0-.34-.305-.592-.704-.443l-9.777 4.387c-.342.161-.592.438-.592.825v.196c0 .388.25.664.6.828l9.782 4.388zM442.523 289.023c-.256-.268-.359-.625-.209-1.082l6.514-19.048c.251-.76 1.2-.898 1.683-.393.26.27.359.635.209 1.082l-6.513 19.048c-.266.793-1.223.873-1.684.393z" class="colorfff svgShape"/><path fill="#ffffff" d="M442.164 289.367c-.38-.398-.531-.95-.322-1.581l6.516-19.054c.375-1.14 1.804-1.316 2.512-.576.38.395.533.952.321 1.584l-6.514 19.05c-.383 1.145-1.795 1.325-2.513.577zm7.136-20.317-6.515 19.052c-.07.212-.073.398.097.576a.515.515 0 0 0 .854-.207l6.514-19.05c.069-.21.073-.397-.098-.576-.224-.234-.715-.206-.852.205zM453.277 284.574c0-.409.284-.775.664-.934l8.848-3.932-8.848-3.933c-.704-.293-.876-1.139-.381-1.634.312-.312.78-.343 1.094-.21l9.806 4.4c.531.252.885.694.885 1.279v.196c0 .59-.36 1.03-.885 1.278l-9.806 4.4c-.623.264-1.377-.151-1.377-.91z" class="colorfff svgShape"/><path fill="#ffffff" d="M452.78 284.574c0-.613.405-1.156.968-1.393l7.816-3.473-7.825-3.478c-1.021-.426-1.272-1.7-.53-2.44.427-.428 1.126-.535 1.64-.316l9.815 4.403c.71.336 1.178.945 1.178 1.733v.196c0 .79-.476 1.401-1.169 1.728l-9.815 4.404c-.964.408-2.078-.255-2.078-1.364zm1.132-10.081c-.254.254-.143.672.22.823l9.882 4.392-9.871 4.387c-.246.103-.368.308-.368.48 0 .376.365.585.685.45l9.796-4.395c.345-.162.591-.439.591-.824v-.196c0-.393-.25-.664-.6-.829l-9.797-4.395a.523.523 0 0 0-.538.107z" class="colorfff svgShape"/><path fill="#ffdad9" d="m482.115 279.61-.597 9.522s-15.273 4.357-17.233-4.726c-1.552-7.194 8.06-6.02 8.06-6.02l9.77 1.224z" class="colorffdad9 svgShape"/><path fill="#3bbfe2" d="M526.54 231.805c-12.264-.086-11.127 38.751-11.127 38.751l-34.8 7.437c-1.314.114-.199 12.994 1.115 12.88 14.03.307 42.18-.595 46.064-3.95 8.394-7.256 5.566-24.287 6.415-36.615.614-8.908-3.4-18.472-7.666-18.503z" class="color3bbfe2 svgShape"/><path fill="#ffdad9" d="M425.558 279.895c0 4.06-3.033 7.353-6.768 7.353s-3.735-14.706 0-14.706 6.768 3.294 6.768 7.353z" class="colorffdad9 svgShape"/><linearGradient id="k" x1="474.411" x2="474.411" y1="133.528" y2="151.466" gradientUnits="userSpaceOnUse"><stop offset="0" stop-color="#fadf68" class="stopColorfadf68 svgShape"/><stop offset="1" stop-color="#eac250" class="stopColoreac250 svgShape"/></linearGradient><path fill="url(#k)" d="M492.461 129.6a18.039 18.039 0 0 1-5.35 13.637c-2.403 2.38-4.15 5.101-5 8.173h-15.394c-.804-3.004-2.426-5.701-4.806-7.98a17.99 17.99 0 0 1-5.566-13.048c0-10.429 8.842-18.795 19.441-18.013 9.069.68 16.29 8.15 16.675 17.231z"/><path fill="#ffffff" d="M479.22 132.7a2.533 2.533 0 0 0-2.385 2.525v1.654h-4.852v-1.654c0-1.466-1.253-2.56-2.488-2.53-1.241-.02-2.486 1.07-2.486 2.53a2.532 2.532 0 0 0 2.53 2.53h1.568v14.301a.438.438 0 0 0 .876 0v-14.301h4.852v14.301a.438.438 0 0 0 .876 0v-14.301h1.568a2.532 2.532 0 0 0 2.53-2.53c0-1.57-1.45-2.67-2.59-2.525zm-8.113 4.179h-1.569a1.656 1.656 0 0 1-1.654-1.654c0-.898.72-1.63 1.611-1.653a1.656 1.656 0 0 1 1.612 1.653v1.654zm8.172 0h-1.568v-1.654c0-.898.719-1.63 1.611-1.653a1.656 1.656 0 0 1 1.611 1.653c0 .912-.741 1.654-1.654 1.654z" class="colorfff svgShape"/><path fill="#373a50" d="M482.952 152.294v3.84a.886.886 0 0 1-.883.883h-15.324a.88.88 0 0 1-.876-.884v-3.84a.88.88 0 0 1 .876-.882h15.324c.486 0 .883.398.883.883z" class="color373a50 svgShape"/><path fill="#373a50" d="M479.649 157.017v2.107a.665.665 0 0 1-.669.668h-9.146a.668.668 0 0 1-.668-.668v-2.107h10.483z" class="color373a50 svgShape"/><linearGradient id="l" x1="473.496" x2="475.023" y1="105.96" y2="105.96" gradientUnits="userSpaceOnUse"><stop offset="0" stop-color="#fadf68" class="stopColorfadf68 svgShape"/><stop offset="1" stop-color="#eac250" class="stopColoreac250 svgShape"/></linearGradient><path fill="url(#l)" d="M474.26 108.56a.763.763 0 0 1-.764-.764v-3.673a.763.763 0 0 1 1.527 0v3.673a.763.763 0 0 1-.763.764z"/><linearGradient id="m" x1="462.65" x2="466.014" y1="108.78" y2="108.78" gradientUnits="userSpaceOnUse"><stop offset="0" stop-color="#fadf68" class="stopColorfadf68 svgShape"/><stop offset="1" stop-color="#eac250" class="stopColoreac250 svgShape"/></linearGradient><path fill="url(#m)" d="m464.589 110.752-1.837-3.18a.763.763 0 0 1 1.323-.764l1.836 3.18a.763.763 0 0 1-1.322.764z"/><linearGradient id="n" x1="454.79" x2="459.498" y1="116.186" y2="116.186" gradientUnits="userSpaceOnUse"><stop offset="0" stop-color="#fadf68" class="stopColorfadf68 svgShape"/><stop offset="1" stop-color="#eac250" class="stopColoreac250 svgShape"/></linearGradient><path fill="url(#n)" d="m458.353 117.766-3.181-1.837a.763.763 0 1 1 .763-1.322l3.181 1.836a.763.763 0 1 1-.763 1.323z"/><linearGradient id="o" x1="489.32" x2="494.028" y1="115.669" y2="115.669" gradientUnits="userSpaceOnUse"><stop offset="0" stop-color="#fadf68" class="stopColorfadf68 svgShape"/><stop offset="1" stop-color="#eac250" class="stopColoreac250 svgShape"/></linearGradient><path fill="url(#o)" d="M489.422 116.969a.763.763 0 0 1 .28-1.043l3.18-1.836a.763.763 0 1 1 .764 1.322l-3.181 1.836a.763.763 0 0 1-1.043-.28z"/><linearGradient id="p" x1="482.586" x2="485.949" y1="108.481" y2="108.481" gradientUnits="userSpaceOnUse"><stop offset="0" stop-color="#fadf68" class="stopColorfadf68 svgShape"/><stop offset="1" stop-color="#eac250" class="stopColoreac250 svgShape"/></linearGradient><path fill="url(#p)" d="M482.967 110.733a.764.764 0 0 1-.28-1.043l1.837-3.18a.763.763 0 1 1 1.323.763l-1.837 3.18a.763.763 0 0 1-1.043.28z"/><linearGradient id="q" x1="101.948" x2="143.667" y1="135.167" y2="135.167" gradientUnits="userSpaceOnUse"><stop offset="0" stop-color="#909eff" class="stopColor909eff svgShape"/><stop offset="1" stop-color="#6977e3" class="stopColor6977e3 svgShape"/></linearGradient><path fill="url(#q)" d="M139.564 153.085c.085.602-.424 1.127-1.025 1.025l-5.332-.847a20.836 20.836 0 0 1-10.391 2.763c-11.519 0-20.868-9.332-20.868-20.85 0-11.52 9.35-20.868 20.868-20.868 11.519 0 20.85 9.349 20.85 20.867 0 5.078-1.822 9.748-4.83 13.35l.728 4.56z"/><path fill="#ffffff" d="M128.793 144.682v2.475a.77.77 0 0 1-.77.77h-11.39a.771.771 0 0 1-.775-.77v-2.475c0-.425.345-.77.775-.77h11.39a.77.77 0 0 1 .77.77zM128.707 133.737l-2.485 8.52h-7.964l-2.485-8.52 5.574-10.43h.005v8.515a1.91 1.91 0 1 0 1.78 0v-8.515l5.575 10.43z" class="colorfff svgShape"/></svg>